<svg width="488" height="90" viewBox="0 0 488 90" fill="none" xmlns="http://www.w3.org/2000/svg">
<path d="M138.214 89.943C130.101 89.303 123.017 87.509 117.364 84.662C108.751 80.325 102.42 73.027 99.411 63.966C97.093 56.987 96.905 51.493 98.733 44.252C101.765 32.246 109.471 22.063 121.744 13.841C129.545 8.614 137.474 5.15699 147.282 2.70399C158.602 -0.127005 167.267 -0.311994 178.747 2.03101C198.535 6.07001 209.942 16.362 211.995 32.028C212.427 35.327 212.149 41.91 211.434 45.318C209.508 54.49 204.324 63.292 196.239 71.116C185.498 81.509 171.174 87.75 153.896 89.564C151.065 89.861 140.434 90.118 138.214 89.943V89.943ZM155.447 68.442C164.714 67.227 172.066 63.701 177.709 57.766C181.164 54.132 183.518 50.065 184.607 45.849C185.294 43.185 185.358 38.635 184.74 36.281C182.685 28.456 175.952 23.615 164.781 21.931C159.998 21.21 156.204 21.459 150.678 22.854C141.446 25.186 133.117 30.556 128.743 36.997C125.29 42.081 123.863 47.956 124.908 52.782C125.461 55.335 127.284 59.193 128.789 60.999C132.069 64.933 136.943 67.514 142.822 68.43C145.958 68.919 151.768 68.924 155.447 68.442V68.442ZM36.548 89.034C18.663 85.85 5.906 76.381 2.178 63.524C1.307 60.52 0.931998 57.366 0.933998 53.057C0.935998 46.412 1.898 41.317 4.238 35.547C11.58 17.444 30.507 4.118 53.829 0.630005C56.505 0.230005 59.969 0.161006 81.932 0.0720062C95.71 0.0160062 106.983 0.00700195 106.983 0.052002C106.983 0.096002 105.804 4.738 104.364 10.366L101.745 20.599L79.845 20.737C58.268 20.873 57.902 20.884 55.035 21.488C46.123 23.364 38.717 27.009 33.89 31.895C31.195 34.624 29.465 37.409 28.277 40.932C27.522 43.175 27.413 43.878 27.303 47.218C27.128 52.581 27.874 55.739 30.18 59.39C32.239 62.651 35.678 65.212 40.101 66.779C44.364 68.289 44.732 68.309 68.756 68.309H90.794L90.628 69.172C90.536 69.648 89.479 74.402 88.278 79.738L86.095 89.439L62.717 89.485C40.937 89.527 39.148 89.497 36.548 89.034V89.034ZM198.949 89.373C198.952 88.811 206.638 73.782 208.567 70.568C217.022 56.474 224.994 48.111 234.525 43.339C237.893 41.653 240.754 40.829 248.423 39.339C258.438 37.394 270.944 34.741 275.894 33.513C283.231 31.692 286.25 30.514 287.555 28.964C288.173 28.229 288.254 27.904 288.254 26.152C288.254 23.753 287.788 22.521 286.608 21.802C285.739 21.272 285.355 21.265 254.045 21.264L222.361 21.263L222.194 20.267C221.397 15.507 218.554 11.106 212.042 4.55099C209.664 2.15699 207.719 0.153999 207.719 0.098999C207.719 0.044999 225.45 0.000998901 247.122 0.0019989C290.195 0.0029989 288.561 -0.0499997 294.75 1.569C303.348 3.818 309.562 8.14301 312.436 13.878C313.984 16.967 314.394 19.222 314.231 23.749C314.083 27.853 313.604 30.148 312.185 33.558C309.698 39.531 303.908 45.367 296.493 49.372C292.148 51.72 285.212 54.048 281.522 54.396C278.117 54.718 277.8 55.935 280.745 57.38C283.555 58.758 286.707 60.992 289.364 63.49C293.735 67.598 296.522 72.051 297.399 76.325C297.954 79.029 298.207 83.779 297.967 86.981L297.773 89.572H267.198L267.369 88.893C268.211 85.539 268.543 79.928 268.053 77.345C267.304 73.396 259.432 65.613 253.131 62.594C250.758 61.457 249.985 61.438 247.927 62.466C243.397 64.73 236.636 73.955 230.547 86.183L228.859 89.572H213.903C205.678 89.572 198.948 89.482 198.949 89.373V89.373ZM308.179 89.373C308.175 89.263 312.685 69.109 318.203 44.587L328.235 0H368.712C390.974 0 409.189 0.0599956 409.189 0.132996C409.189 0.251996 405.137 18.969 404.801 20.4L404.661 20.998H377.289C362.235 20.998 349.917 21.034 349.917 21.078C349.917 21.122 349.26 24.435 348.456 28.44C347.652 32.445 346.994 35.818 346.994 35.935C346.994 36.052 357.16 36.148 369.586 36.148C382.012 36.148 392.181 36.237 392.184 36.347C392.187 36.457 391.26 40.762 390.124 45.915L388.059 55.284L342.313 55.285L340.932 61.756C340.173 65.314 339.552 68.364 339.552 68.533C339.552 68.763 346.309 68.84 366.529 68.84C392.051 68.84 393.507 68.865 393.492 69.305C393.483 69.561 392.495 74.196 391.295 79.605L389.114 89.439L348.651 89.506C326.396 89.543 308.184 89.484 308.179 89.373V89.373ZM399.089 89.221C399.089 88.975 417.73 8.77401 419.688 0.598007L419.831 0H432.868C445.16 0 445.896 0.0269963 445.763 0.464996C445.506 1.309 430.718 67.7 430.718 68.007C430.718 68.23 438.081 68.309 458.892 68.309C474.388 68.309 487.066 68.372 487.066 68.448C487.066 68.602 483.565 84.889 482.911 87.778L482.505 89.572H440.797C406.402 89.572 399.089 89.51 399.089 89.221V89.221Z" fill="#11589A"/>
</svg>
